PathFileType	4	(X/Y/Z)	/home/abdul/Desktop/myosuite/custom_workspace/IK/output/S11_12_1.trc
DataRate	CameraRate	NumFrames	NumMarkers	Units	OrigDataRate	OrigDataStartFrame	OrigNumFrames
200.0	200.0	44	3	mm	200.0	580	1546
Frame#	Time	V_Shoulder			V_Elbow			V_Wrist		
		X1	Y1	Z1	X2	Y2	Z2	X3	Y3	Z3

580	2.895	-100.68141760106272	649.7063561806293	300.92273447203553	-296.5870851859594	432.9104715724678	132.09945248053273	-104.41518551531523	361.1855610683268	290.46841459562756
581	2.9	-100.69964777472558	649.7907423806972	300.96924123757185	-296.8069414300947	432.89381394521274	132.59629888952804	-104.61798364084234	361.54480670074224	291.1200132979493
582	2.905	-100.71976840270902	649.8733668950655	301.01503532860016	-297.0257018652138	432.8769705251258	133.0860493086481	-104.8263866961285	361.8979964211883	291.7688201243129
583	2.91	-100.74179867574884	649.9543219646486	301.06009828656056	-297.24327290748124	432.86009655396737	133.5683625775357	-105.04041391139893	362.24504001460434	292.4144959705626
584	2.915	-100.76575503390033	650.0337004703907	301.10441293537036	-297.45956316330177	432.84334205946806	134.04291517132665	-105.26006700528102	362.5858591257321	293.05670717576146
585	2.92	-100.79165108957193	650.1115959545623	301.14796345556607	-297.67448382533314	432.82685180041096	134.50940232043874	-105.48533028037318	362.92038751393966	293.6951263876754
586	2.925	-100.81949755616525	650.1881026368217	301.1907354533478	-297.8879490603117	432.81076523466174	134.96753906087912	-105.7161707903578	363.24857126138215	294.3294334118292
587	2.93	-100.84930218260801	650.2633154247847	301.2327160242225	-298.09987638642195	432.79521650943013	135.41706121051274	-105.95253857674854	363.5703689355064	294.95931604143334
588	2.935	-100.88106969404993	650.3373299188601	301.27389381095975	-298.3101870379993	432.7803344729614	135.85772626705256	-106.19436697305667	363.88575170703564	295.5844708654554
589	2.94	-100.91480173897286	650.4102424111356	301.31425905559917	-298.5188063154244	432.76624270677985	136.28931422387132	-106.44157297387156	364.1947034246723	296.20460405209997
590	2.945	-100.95049684294615	650.4821498781126	301.3538036452692	-298.7256639181528	432.7530595775265	136.71162830009436	-106.6940576660763	364.4972206478473	296.81943210496047
591	2.95	-100.98815036923897	650.5531499671141	301.39252115160485	-298.93069425891827	432.7408983073723	137.12449558181095	-106.95170671916348	364.7933126389203	297.42868258912154
592	2.955	-101.02775448647903	650.6233409762108	301.43040686357773	-299.13383675725265	432.7298670619184	137.527767571635	-107.21439093137829	365.08300131629034	298.03209482451746
593	2.96	-101.0692981435255	650.6928218275362	301.467457813577	-299.3350361105869	432.7200690544464	137.92132064425417	-107.48196682819938	365.36632116992246	298.6294205438951
594	2.965	-101.11276705170131	650.7616920338822	301.50367279661174	-299.5342425413207	432.71160266532536	138.30505640602678	-107.75427730947155	365.64331914082516	299.2204245127837
595	2.97	-101.15814367450672	650.8300516584918	301.5390523825314	-299.7314120183878	432.7045615753438	138.6789019571141	-108.03115234133034	365.91405446602903	299.80488510894804
596	2.975	-101.20540722491239	650.8980012679939	301.57359892119325	-299.92650645198796	432.6990349116936	139.04281005507386	-108.31240968890717	366.1785984906235	300.3825948588845
597	2.98	-101.25453367030639	650.965641878446	301.60731654053416	-300.11949386030835	432.69510740530256	139.39675917928142	-108.59785568567521	366.43703444840037	300.9533609290238
598	2.985	-101.30549574514458	651.0330748944801	301.6402111375362	-300.3103485072173	432.69285955818873	139.74075349599076	-108.88728603519246	366.68945721263964	301.51700556941995
599	2.99	-101.35826297133046	651.1004020415706	301.67229036210693	-300.4990510100754	432.6923678194889	140.07482272429104	-109.18048664091762	366.93597301854595	302.0733665078375
600	2.995	-101.41280168632488	651.1677252914712	301.7035635939239	-300.68558841698064	432.6937047688	140.39902190365865	-109.47723445971815	367.1766991588152	302.62229729229546
601	3.0	-101.46907507896249	651.2351467808932	301.73404191232754	-300.8699542529331	432.6969393054698	140.71343106424297	-109.77729837465776	367.41176365377123	303.16366758029125
602	3.005	-101.52704323292646	651.3027687235234	301.7637380593753	-301.0521485345806	432.7021368424664	141.01815480145643	-110.08044008264272	367.6413048974728	303.6973633731009
603	3.01	-101.5866631778096	651.3706933155058	301.79266639619937	-301.23217775338236	432.7093595034653	141.31332175686435	-110.3864149925211	367.8654712811451	304.223287193747
604	3.015	-101.64788894766582	651.4390226345386	301.8208428528437	-301.4100548272016	432.7186663218017	141.59908400778215	-110.69497312926796	368.0844207952415	304.7413582074253
605	3.02	-101.71067164693204	651.5078585327618	301.84828487178277	-301.5857990205153	432.730113439953	141.87561636838905	-111.00586003995058	368.2983206113952	305.2515122834018
606	3.025	-101.77495952357818	651.5773025236382	301.8750113453518	-301.75943583359924	432.74375430823716	142.14311560555316	-111.31881769725024	368.5073466454702	305.75370199761664
607	3.03	-101.84069804931983	651.6474556630516	301.9010425473504	-301.930996861218	432.7596398814402	142.40179957293248	-111.63358539642158	368.71168310287555	306.247896575474
608	3.035	-101.90783000670656	651.7184184248753	301.92640005910226	-302.1005196215143	432.7778188121192	142.6519062672673	-111.94990064169316	368.91152200726157	306.73408177454223
609	3.04	-101.97629558287728	651.7902905712825	301.95110669028395	-302.26804735595226	432.7983376393629	142.89369281111192	-112.26750001825665	369.1070627136759	307.21225970714875
610	3.045	-102.0460324697538	651.863171018099	301.9751863948549	-302.43362880132497	432.8212409718376	143.1274343665637	-112.58612004615216	369.2985114072171	307.6824486031169
611	3.05	-102.11697597042411	651.9371576955145	301.99866418244693	-302.59731793498423	432.8465716639898	143.35342298483494	-112.90549801253414	369.4860805881942	308.1446825131625
612	3.055	-102.1890591114481	652.0123474044954	302.0215660255905	-302.75917369458966	432.87437098433213	143.57196639677653	-113.2253727789952	369.6699885447679	308.5990109537426
613	3.06	-102.26221276080015	652.0888356692611	302.04391876317425	-302.9192596738075	432.9046787747927	143.78338674970274	-113.54548556083111	369.8504588140306	309.0454984944261
614	3.065	-102.33636575114697	652.1667165862027	302.06575000055153	-303.07764379551134	432.9375336001706	143.9880192960767	-113.86558067534921	370.02771963246545	309.48422428913534
615	3.07	-102.41144500814255	652.246082669645	302.0870880067242	-303.23439796414976	432.9729728868028	144.1862110398042	-114.1854062565526	370.20200337671105	309.9152815528848
616	3.075	-102.4873756834075	652.3270246948686	302.1079616090458	-303.38959769905046	433.011033049619	144.3783193460401	-114.50471493377216	370.3735459955592	310.33877698592073
617	3.08	-102.56408129184702	652.4096315388243	302.1284000858991	-303.54332175051906	433.05174960682893	144.56471052054226	-114.82326447206555	370.5425864341122	310.75483014743645
618	3.085	-102.6414838529479	652.4939900189906	302.14843305781244	-303.6956517006744	433.0951572815648	144.74575836470913	-115.14081837245706	370.709366051038	311.1635727813059
619	3.09	-102.71950403568518	652.5801847308325	302.1680903774855	-303.84667155103057	433.14129008987845	144.92184271250957	-115.45714643035117	370.8741280298734	311.56514809653817
620	3.095	-102.79806130665764	652.6682978843381	302.1874020192013	-303.99646729889304	433.19018141457286	145.09334795555716	-115.77202525071532	371.03711678535	311.9597100054043
621	3.1	-102.87707408106341	652.7584091401196	302.20639796810366	-304.1451265046808	433.2418640644329	145.26066156259472	-116.0852387188917	371.19857736574124	312.3474223224289
622	3.105	-102.95645987611813	652.8505954455705	302.22510810982203	-304.29273785232306	433.2963703185018	145.4241725996406	-116.39657842616353	371.35875485226336	312.7284579276652
623	3.11	-103.03613546651316	652.9449308715849	302.24356212092033	-304.4393907048973	433.3537319551402	145.58427025700487	-116.7058440494639	371.5178937565969	313.10299789788644
